<svg xmlns="http://www.w3.org/2000/svg" viewBox="0 0 1000 220" width="1000" height="220">
  <title>Banner option A — Atomic dusk: a saucer tower, an elevated train and a Googie sign at sunset</title>
  <g id="sky-layer">
    <rect id="sky" width="1000" height="220" fill="#BFE3DD"/>
    <rect id="dusk-band-1" y="96" width="1000" height="100" fill="#E9D3A3" opacity="0.7"/>
    <rect id="dusk-band-2" y="132" width="1000" height="64" fill="#E3A93A" opacity="0.28"/>
    <rect id="dusk-band-3" y="160" width="1000" height="36" fill="#E07A3F" opacity="0.22"/>
  </g>
  <g id="stars">
    <path id="star-1" d="M40 17 Q40.9 21.1 45 22 Q40.9 22.9 40 27 Q39.1 22.9 35 22 Q39.1 21.1 40 17 Z" fill="#FFFFFF"/>
    <path id="star-2" d="M170 10 Q170.7 13.3 174 14 Q170.7 14.7 170 18 Q169.3 14.7 166 14 Q169.3 13.3 170 10 Z" fill="#FFFFFF"/>
    <path id="star-3" d="M330 27 Q330.5 29.5 333 30 Q330.5 30.5 330 33 Q329.5 30.5 327 30 Q329.5 29.5 330 27 Z" fill="#FFFFFF"/>
    <path id="star-4" d="M420 8 Q420.7 11.3 424 12 Q420.7 12.7 420 16 Q419.3 12.7 416 12 Q419.3 11.3 420 8 Z" fill="#FFFFFF"/>
    <path id="star-5" d="M610 19 Q610.5 21.5 613 22 Q610.5 22.5 610 25 Q609.5 22.5 607 22 Q609.5 21.5 610 19 Z" fill="#FFFFFF"/>
    <path id="star-6" d="M690 36 Q690.7 39.3 694 40 Q690.7 40.7 690 44 Q689.3 40.7 686 40 Q689.3 39.3 690 36 Z" fill="#FFFFFF"/>
    <path id="star-7" d="M800 9 Q800.9 13.1 805 14 Q800.9 14.9 800 19 Q799.1 14.9 795 14 Q799.1 13.1 800 9 Z" fill="#FFFFFF"/>
    <path id="star-8" d="M960 27 Q960.5 29.5 963 30 Q960.5 30.5 960 33 Q959.5 30.5 957 30 Q959.5 29.5 960 27 Z" fill="#FFFFFF"/>
  </g>
  <g id="sun">
    <circle cx="262" cy="160" r="52" fill="#F4B942"/>
  </g>
  <g id="mesas">
    <path d="M0 196 L0 172 L60 172 L72 160 L150 160 L162 176 L230 176 L244 166 L330 166 L344 180 L440 180 L452 168 L560 168 L572 178 L660 178 L676 158 L770 158 L784 174 L880 174 L894 162 L1000 162 L1000 196 Z" fill="#7FA97C" opacity="0.7"/>
  </g>
  <g id="sparkles">
    <path id="sparkle-1" d="M150 37 Q152 46 161 48 Q152 50 150 59 Q148 50 139 48 Q148 46 150 37 Z" fill="#FFF9EC"/>
    <path id="sparkle-2" d="M372 74 Q373.4 80.6 380 82 Q373.4 83.4 372 90 Q370.6 83.4 364 82 Q370.6 80.6 372 74 Z" fill="#E3A93A"/>
    <path id="sparkle-3" d="M640 51 Q641.6 58.4 649 60 Q641.6 61.6 640 69 Q638.4 61.6 631 60 Q638.4 58.4 640 51 Z" fill="#FFF9EC"/>
    <path id="sparkle-4" d="M712 85 Q713.3 90.7 719 92 Q713.3 93.3 712 99 Q710.7 93.3 705 92 Q710.7 90.7 712 85 Z" fill="#E3A93A"/>
    <path id="sparkle-5" d="M842 30 Q843.8 38.2 852 40 Q843.8 41.8 842 50 Q840.2 41.8 832 40 Q840.2 38.2 842 30 Z" fill="#FFF9EC"/>
  </g>
  <g id="saucer-tower">
    <path d="M82 196 L90 92 L100 92 L108 196 Z" fill="#FFF9EC" stroke="#2B2D42" stroke-width="3" stroke-linejoin="round"/>
    <path d="M86 150 L104 150 M84 172 L106 172" fill="none" stroke="#2B2D42" stroke-width="2"/>
    <path d="M95 92 L95 60" stroke="#2B2D42" stroke-width="3"/>
    <ellipse cx="95" cy="78" rx="56" ry="13" fill="#D9573F" stroke="#2B2D42" stroke-width="3"/>
    <path d="M70 72 Q95 44 120 72 Z" fill="#BFE3DD" stroke="#2B2D42" stroke-width="3" stroke-linejoin="round"/>
    <circle cx="62" cy="80" r="3" fill="#FFF9EC"/><circle cx="80" cy="83" r="3" fill="#FFF9EC"/><circle cx="110" cy="83" r="3" fill="#FFF9EC"/><circle cx="128" cy="80" r="3" fill="#FFF9EC"/>
    <path d="M95 50 L95 34" stroke="#2B2D42" stroke-width="2.5"/>
    <circle cx="95" cy="31" r="5" fill="#E3A93A" stroke="#2B2D42" stroke-width="2"/>
  </g>
  <g id="palms">
    <g id="palm-1">
      <path d="M30 196 Q28.2 160 24 124" fill="none" stroke="#2B2D42" stroke-width="4.2" stroke-linecap="round"/>
      <path d="M24 124 Q13 112.1 1.9 119.8 M24 124 Q18.9 112.1 13 109.5 M24 124 Q29.1 112.1 35 109.5 M24 124 Q35 112.1 46.1 119.8 M24 124 Q36.8 112.1 48.6 136.8 M24 124 Q11.2 112.1 -0.6 136.8" fill="none" stroke="#2F9C95" stroke-width="5.1" stroke-linecap="round"/>
    </g>
    <g id="palm-2">
      <path d="M176 196 Q178.4 154 184 112" fill="none" stroke="#2B2D42" stroke-width="5" stroke-linecap="round"/>
      <path d="M184 112 Q171 98 158 107 M184 112 Q178 98 171 95 M184 112 Q190 98 197 95 M184 112 Q197 98 210 107 M184 112 Q199 98 213 127 M184 112 Q169 98 155 127" fill="none" stroke="#2F9C95" stroke-width="6" stroke-linecap="round"/>
    </g>
    <g id="palm-3">
      <path d="M212 196 Q210.8 162 208 128" fill="none" stroke="#2B2D42" stroke-width="4" stroke-linecap="round"/>
      <path d="M208 128 Q197.6 116.8 187.2 124 M208 128 Q203.2 116.8 197.6 114.4 M208 128 Q212.8 116.8 218.4 114.4 M208 128 Q218.4 116.8 228.8 124 M208 128 Q220 116.8 231.2 140 M208 128 Q196 116.8 184.8 140" fill="none" stroke="#2F9C95" stroke-width="4.8" stroke-linecap="round"/>
    </g>
  </g>
  <g id="monorail-track">
    <path d="M0 150 Q300 132 520 140 T1000 128" fill="none" stroke="#2B2D42" stroke-width="10" stroke-linecap="round"/>
    <path d="M0 150 Q300 132 520 140 T1000 128" fill="none" stroke="#FFF9EC" stroke-width="4" stroke-linecap="round"/>
    <path d="M140 148 L140 196 M128 151 L152 151" fill="none" stroke="#2B2D42" stroke-width="5"/>
    <path d="M380 142 L380 196 M368 145 L392 145" fill="none" stroke="#2B2D42" stroke-width="5"/>
    <path d="M620 146 L620 196 M608 149 L632 149" fill="none" stroke="#2B2D42" stroke-width="5"/>
    <path d="M880 137 L880 196 M868 140 L892 140" fill="none" stroke="#2B2D42" stroke-width="5"/>
  </g>
  <g id="monorail-train">
    <path d="M694 116 L740 116 Q744 116 744 120 L744 136 L690 136 L690 120 Q690 116 694 116 Z" fill="#2F9C95" stroke="#2B2D42" stroke-width="2.5" stroke-linejoin="round"/>
    <rect x="696" y="121" width="40" height="7" rx="3" fill="#FFF9EC" stroke="#2B2D42" stroke-width="1.5"/>
    <line x1="690" y1="132" x2="744" y2="132" stroke="#E3A93A" stroke-width="2.5"/>
    <path d="M752 114 L798 114 Q802 114 802 118 L802 134 L748 134 L748 118 Q748 114 752 114 Z" fill="#2F9C95" stroke="#2B2D42" stroke-width="2.5" stroke-linejoin="round"/>
    <rect x="754" y="119" width="40" height="7" rx="3" fill="#FFF9EC" stroke="#2B2D42" stroke-width="1.5"/>
    <line x1="748" y1="130" x2="802" y2="130" stroke="#E3A93A" stroke-width="2.5"/>
    <path d="M806 111.9 L844 111.9 Q868 119.9 866 131.9 L806 131.9 Z" fill="#2F9C95" stroke="#2B2D42" stroke-width="2.5" stroke-linejoin="round"/>
    <rect x="812" y="116.9" width="34" height="7" rx="3" fill="#FFF9EC" stroke="#2B2D42" stroke-width="1.5"/>
    <line x1="806" y1="127.9" x2="864" y2="127.9" stroke="#E3A93A" stroke-width="2.5"/>
  </g>
  <g id="pavilion">
    <path d="M600 196 L600 168 M712 196 L712 160" fill="none" stroke="#2B2D42" stroke-width="3"/>
    <rect x="608" y="170" width="98" height="26" fill="#F1E6CF" stroke="#2B2D42" stroke-width="3"/>
    <path d="M590 166 L660 148 L726 156 L722 163 L660 157 L594 173 Z" fill="#D9573F" stroke="#2B2D42" stroke-width="3" stroke-linejoin="round"/>
  </g>
  <g id="googie-sign">
    <path d="M916 196 L916 70" stroke="#2B2D42" stroke-width="6"/>
    <path d="M868 74 L960 74 L976 100 L960 126 L868 126 L884 100 Z" fill="#D9573F" stroke="#2B2D42" stroke-width="3" stroke-linejoin="round"/>
    <path d="M884 92 L948 92 M884 108 L940 108" stroke="#FFF9EC" stroke-width="5" stroke-linecap="round"/>
      <circle cx="872" cy="80" r="2.6" fill="#FFF9EC" stroke="#2B2D42" stroke-width="1"/>
      <circle cx="884" cy="80" r="2.6" fill="#FFF9EC" stroke="#2B2D42" stroke-width="1"/>
      <circle cx="896" cy="80" r="2.6" fill="#FFF9EC" stroke="#2B2D42" stroke-width="1"/>
      <circle cx="908" cy="80" r="2.6" fill="#FFF9EC" stroke="#2B2D42" stroke-width="1"/>
      <circle cx="920" cy="80" r="2.6" fill="#FFF9EC" stroke="#2B2D42" stroke-width="1"/>
      <circle cx="932" cy="80" r="2.6" fill="#FFF9EC" stroke="#2B2D42" stroke-width="1"/>
      <circle cx="944" cy="80" r="2.6" fill="#FFF9EC" stroke="#2B2D42" stroke-width="1"/>
      <circle cx="956" cy="80" r="2.6" fill="#FFF9EC" stroke="#2B2D42" stroke-width="1"/>
      <circle cx="872" cy="120" r="2.6" fill="#FFF9EC" stroke="#2B2D42" stroke-width="1"/>
      <circle cx="884" cy="120" r="2.6" fill="#FFF9EC" stroke="#2B2D42" stroke-width="1"/>
      <circle cx="896" cy="120" r="2.6" fill="#FFF9EC" stroke="#2B2D42" stroke-width="1"/>
      <circle cx="908" cy="120" r="2.6" fill="#FFF9EC" stroke="#2B2D42" stroke-width="1"/>
      <circle cx="920" cy="120" r="2.6" fill="#FFF9EC" stroke="#2B2D42" stroke-width="1"/>
      <circle cx="932" cy="120" r="2.6" fill="#FFF9EC" stroke="#2B2D42" stroke-width="1"/>
      <circle cx="944" cy="120" r="2.6" fill="#FFF9EC" stroke="#2B2D42" stroke-width="1"/>
      <circle cx="956" cy="120" r="2.6" fill="#FFF9EC" stroke="#2B2D42" stroke-width="1"/>
    <path id="sign-star" d="M916 24 Q920 42 938 46 Q920 50 916 68 Q912 50 894 46 Q912 42 916 24 Z" fill="#E3A93A"/>
    <circle cx="916" cy="46" r="5" fill="#FFF9EC" stroke="#2B2D42" stroke-width="2"/>
    <path d="M904 196 L904 150 Q916 136 928 150 L928 196" fill="#2F9C95" stroke="#2B2D42" stroke-width="3"/>
  </g>
  <g id="shrubs">
    <path d="M240 196 q10 -18 22 -6 q10 -14 22 0 q8 -8 14 6 Z M520 196 q10 -16 22 -4 q10 -12 22 4 Z M760 196 q12 -18 26 -4 q12 -12 22 4 Z" fill="#7FA97C" stroke="#2B2D42" stroke-width="2.5" stroke-linejoin="round"/>
  </g>
  <g id="ground">
    <rect y="196" width="1000" height="24" fill="#D8C29C"/>
    <line x1="0" y1="196" x2="1000" y2="196" stroke="#2B2D42" stroke-width="3"/>
  </g>
</svg>
